<svg width="17" height="17" viewBox="0 0 17 17" fill="none" xmlns="http://www.w3.org/2000/svg">
<path fill-rule="evenodd" clip-rule="evenodd" d="M12.5944 4.4056C12.8019 4.61307 12.8019 4.94943 12.5944 5.1569L5.1569 12.5944C4.94943 12.8019 4.61307 12.8019 4.4056 12.5944C4.19813 12.3869 4.19813 12.0506 4.4056 11.8431L11.8431 4.4056C12.0506 4.19813 12.3869 4.19813 12.5944 4.4056Z" fill="black"/>
<path fill-rule="evenodd" clip-rule="evenodd" d="M4.4056 4.4056C4.61307 4.19813 4.94943 4.19813 5.1569 4.4056L12.5944 11.8431C12.8019 12.0506 12.8019 12.3869 12.5944 12.5944C12.3869 12.8019 12.0506 12.8019 11.8431 12.5944L4.4056 5.1569C4.19813 4.94943 4.19813 4.61307 4.4056 4.4056Z" fill="black"/>
</svg>
