<svg width="29" height="29" viewBox="0 0 29 29" fill="none" xmlns="http://www.w3.org/2000/svg">
<g clip-path="url(#clip0_6025_7888)">
<path d="M0 29L29 29L29 0L0 0L0 29Z" fill="white" fill-opacity="0.5"/>
<path d="M0.125 28.875L28.875 28.875L28.875 0.125L0.125 0.125L0.125 28.875Z" stroke="black" stroke-opacity="0.5" stroke-width="0.25"/>
<path fill-rule="evenodd" clip-rule="evenodd" d="M14.46 10.1725C11.5398 10.1725 9.1725 12.5398 9.1725 15.46C9.1725 18.3802 11.5398 20.7475 14.46 20.7475C17.3802 20.7475 19.7475 18.3802 19.7475 15.46C19.7475 12.5398 17.3802 10.1725 14.46 10.1725ZM6 15.46C6 10.7877 9.78767 7 14.46 7C19.1323 7 22.92 10.7877 22.92 15.46C22.92 20.1323 19.1323 23.92 14.46 23.92C9.78767 23.92 6 20.1323 6 15.46Z" fill="black"/>
<path fill-rule="evenodd" clip-rule="evenodd" d="M9.10835 10.1084C9.72782 9.48888 10.7322 9.48888 11.3516 10.1084L19.8116 18.5684C20.4311 19.1878 20.4311 20.1922 19.8116 20.8116C19.1922 21.4311 18.1878 21.4311 17.5684 20.8116L9.10835 12.3516C8.48888 11.7322 8.48888 10.7278 9.10835 10.1084Z" fill="black"/>
</g>
<defs>
<clipPath id="clip0_6025_7888">
<rect width="29" height="29" fill="white"/>
</clipPath>
</defs>
</svg>
