<svg width="17" height="18" viewBox="0 0 17 18" fill="none" xmlns="http://www.w3.org/2000/svg">
<path fill-rule="evenodd" clip-rule="evenodd" d="M2.83325 5.05599C2.83325 4.76259 3.0711 4.52474 3.3645 4.52474H7.96867C8.26207 4.52474 8.49992 4.76259 8.49992 5.05599C8.49992 5.34939 8.26207 5.58724 7.96867 5.58724H3.3645C3.0711 5.58724 2.83325 5.34939 2.83325 5.05599Z" fill="black"/>
<path fill-rule="evenodd" clip-rule="evenodd" d="M2.83325 13.9102C2.83325 13.6168 3.0711 13.3789 3.3645 13.3789H7.96867C8.26207 13.3789 8.49992 13.6168 8.49992 13.9102C8.49992 14.2036 8.26207 14.4414 7.96867 14.4414H3.3645C3.0711 14.4414 2.83325 14.2036 2.83325 13.9102Z" fill="black"/>
<path fill-rule="evenodd" clip-rule="evenodd" d="M2.83325 9.48307C2.83325 9.18967 3.0711 8.95182 3.3645 8.95182H5.13534C5.42874 8.95182 5.66659 9.18967 5.66659 9.48307C5.66659 9.77647 5.42874 10.0143 5.13534 10.0143H3.3645C3.0711 10.0143 2.83325 9.77647 2.83325 9.48307Z" fill="black"/>
<path fill-rule="evenodd" clip-rule="evenodd" d="M10.0937 5.05599C10.0937 4.76259 10.3315 4.52474 10.6249 4.52474H13.6353C13.9287 4.52474 14.1666 4.76259 14.1666 5.05599C14.1666 5.34939 13.9287 5.58724 13.6353 5.58724H10.6249C10.3315 5.58724 10.0937 5.34939 10.0937 5.05599Z" fill="black"/>
<path fill-rule="evenodd" clip-rule="evenodd" d="M10.0937 13.9102C10.0937 13.6168 10.3315 13.3789 10.6249 13.3789H13.6353C13.9287 13.3789 14.1666 13.6168 14.1666 13.9102C14.1666 14.2036 13.9287 14.4414 13.6353 14.4414H10.6249C10.3315 14.4414 10.0937 14.2036 10.0937 13.9102Z" fill="black"/>
<path fill-rule="evenodd" clip-rule="evenodd" d="M7.26033 9.48307C7.26033 9.18967 7.49818 8.95182 7.79158 8.95182H13.6353C13.9287 8.95182 14.1666 9.18967 14.1666 9.48307C14.1666 9.77647 13.9287 10.0143 13.6353 10.0143H7.79158C7.49818 10.0143 7.26033 9.77647 7.26033 9.48307Z" fill="black"/>
<path fill-rule="evenodd" clip-rule="evenodd" d="M10.4478 3.81641C10.7412 3.81641 10.9791 4.05425 10.9791 4.34766V6.11849C10.9791 6.41189 10.7412 6.64974 10.4478 6.64974C10.1544 6.64974 9.91658 6.41189 9.91658 6.11849V4.34766C9.91658 4.05425 10.1544 3.81641 10.4478 3.81641Z" fill="black"/>
<path fill-rule="evenodd" clip-rule="evenodd" d="M10.4478 12.3164C10.7412 12.3164 10.9791 12.5543 10.9791 12.8477V14.6185C10.9791 14.9119 10.7412 15.1497 10.4478 15.1497C10.1544 15.1497 9.91658 14.9119 9.91658 14.6185V12.8477C9.91658 12.5543 10.1544 12.3164 10.4478 12.3164Z" fill="black"/>
<path fill-rule="evenodd" clip-rule="evenodd" d="M7.6145 8.06641C7.9079 8.06641 8.14575 8.30426 8.14575 8.59766V10.3685C8.14575 10.6619 7.9079 10.8997 7.6145 10.8997C7.3211 10.8997 7.08325 10.6619 7.08325 10.3685V8.59766C7.08325 8.30426 7.3211 8.06641 7.6145 8.06641Z" fill="black"/>
</svg>
