<svg width="25" height="29" viewBox="0 0 25 29" fill="none" xmlns="http://www.w3.org/2000/svg">
<path fill-rule="evenodd" clip-rule="evenodd" d="M12.4946 8.20642C10.7197 6.54537 8.11019 6.21446 6.0804 8.075C3.86437 10.1063 3.53228 13.553 5.296 15.9878C5.31934 16.02 5.34468 16.0503 5.37185 16.0785L11.964 22.9161C12.2636 23.2268 12.7262 23.2268 13.0257 22.9161L19.6179 16.0785C19.6451 16.0503 19.6704 16.02 19.6937 15.9878C21.4502 13.5631 21.1688 10.0896 18.9011 8.06759C16.8491 6.23792 14.2675 6.54479 12.4946 8.20642ZM11.9122 10.004C10.6356 8.40296 8.58789 8.03795 7.07001 9.42928C5.51684 10.8529 5.30559 13.1748 6.4763 14.8389L12.4949 21.0815L18.5135 14.8388C19.6918 13.1647 19.4944 10.8335 17.9279 9.43669C16.3693 8.04696 14.3484 8.41013 13.0776 10.004C12.9294 10.1899 12.7174 10.2962 12.4949 10.2962C12.2723 10.2962 12.0604 10.1899 11.9122 10.004Z" fill="black"/>
</svg>
