<svg width="165" height="19" viewBox="0 0 165 19" fill="none" xmlns="http://www.w3.org/2000/svg">
<g clip-path="url(#clip0_4529_6875)">
<path d="M150.602 0.453125V18.5454H165V14.9525H154.246V11.2826H163.838V7.71587H154.246V4.046H165V0.453125H150.602ZM139.564 0.453125V12.6782L130.646 0.453125H127.027V18.5454H130.646V6.32025L139.565 18.5454H143.235V0.453125H139.564ZM110.897 0.453125L103.632 18.5454H107.432L108.93 14.8494H116.427L117.901 18.5454H121.752L114.489 0.453125H110.897ZM112.68 5.26012L115.059 11.4119H110.25L112.68 5.26012ZM86.5975 0.453125V18.5454H99.7549V14.9525H90.2426V0.453125H86.5975ZM67.6239 3.96762V7.819H74.2679C75.2771 7.819 76.1296 7.0435 76.1296 5.90637C76.1296 4.76925 75.3033 3.96762 74.2679 3.96762H67.6239ZM75.7405 18.5454L71.3969 11.2826H67.6225V18.5454H63.9774V0.453125H74.2651C77.3671 0.453125 79.7459 2.70262 79.7459 5.85412C79.7459 8.6715 77.9364 10.6872 75.4036 11.1534L79.8751 18.5454H75.7391H75.7405ZM42.394 0.453125V18.5454H56.793V14.9525H46.0391V11.2826H55.6297V7.71587H46.0391V4.046H56.793V0.453125H42.394ZM33.6572 0.453125L28.4611 13.6339L23.2389 0.453125H19.3105L26.5746 18.5454H30.2198L37.5086 0.453125H33.6572ZM0.026125 0.453125L0 18.5454H14.4251V14.9525H3.66988V11.2826H13.2605V7.71587H3.66988V4.046H14.4238V0.453125H0.026125Z" fill="black"/>
</g>
<defs>
<clipPath id="clip0_4529_6875">
<rect width="165" height="18.0922" fill="white" transform="translate(0 0.453125)"/>
</clipPath>
</defs>
</svg>
