<svg width="18" height="18" viewBox="0 0 18 18" fill="none" xmlns="http://www.w3.org/2000/svg">
<path fill-rule="evenodd" clip-rule="evenodd" d="M3.33337 5.97135C3.33337 4.89555 4.20549 4.02344 5.28129 4.02344H12.7188C13.7946 4.02344 14.6667 4.89555 14.6667 5.97135V11.9922C14.6667 13.068 13.7946 13.9401 12.7188 13.9401H5.28129C4.20549 13.9401 3.33337 13.068 3.33337 11.9922V5.97135ZM5.28129 5.08594C4.79229 5.08594 4.39587 5.48235 4.39587 5.97135V11.9922C4.39587 12.4812 4.79229 12.8776 5.28129 12.8776H12.7188C13.2078 12.8776 13.6042 12.4812 13.6042 11.9922V5.97135C13.6042 5.48235 13.2078 5.08594 12.7188 5.08594H5.28129Z" fill="black"/>
<path fill-rule="evenodd" clip-rule="evenodd" d="M3.99797 4.73395C4.19237 4.51419 4.52811 4.49363 4.74787 4.68803L9.00004 8.44957L13.2522 4.68803C13.472 4.49363 13.8077 4.51419 14.0021 4.73395C14.1965 4.9537 14.176 5.28944 13.9562 5.48384L9.35203 9.55676C9.15105 9.73455 8.84903 9.73455 8.64805 9.55676L4.04388 5.48384C3.82413 5.28944 3.80357 4.9537 3.99797 4.73395Z" fill="black"/>
</svg>
