<svg width="18" height="18" viewBox="0 0 18 18" fill="none" xmlns="http://www.w3.org/2000/svg">
<path fill-rule="evenodd" clip-rule="evenodd" d="M3.33331 5.28137C3.33331 4.47229 3.9892 3.81641 4.79828 3.81641H6.79909C6.97671 3.81641 7.14258 3.90518 7.24111 4.05297L8.70838 6.25386C8.84885 6.46457 8.82106 6.74513 8.642 6.9242L7.48203 8.08417C7.45769 8.1085 7.44641 8.1336 7.44263 8.15163C7.43924 8.16779 7.44128 8.17897 7.44609 8.18914C7.63119 8.58047 8.00227 9.23087 8.63295 9.83222C9.26195 10.432 9.90176 10.8147 10.2936 11.0171C10.3082 11.0247 10.324 11.0274 10.3437 11.0238C10.3651 11.0198 10.3923 11.0076 10.4176 10.9823L11.5589 9.84105C11.7379 9.66199 12.0185 9.63421 12.2292 9.77468L14.4301 11.2419C14.5779 11.3405 14.6666 11.5063 14.6666 11.684V13.6848C14.6666 14.4939 14.0108 15.1497 13.2017 15.1497C7.75153 15.1497 3.33331 10.7315 3.33331 5.28137ZM4.79828 4.87891C4.576 4.87891 4.39581 5.05909 4.39581 5.28137C4.39581 10.1447 8.33834 14.0872 13.2017 14.0872C13.424 14.0872 13.6041 13.9071 13.6041 13.6848V11.9683L12.0022 10.9003L11.1689 11.7336C10.8256 12.0769 10.2827 12.2074 9.80598 11.9611C9.35307 11.7272 8.62205 11.2899 7.89975 10.6012C7.14691 9.88337 6.70738 9.11229 6.48561 8.64344C6.26313 8.17306 6.40529 7.65831 6.73073 7.33286L7.58274 6.48086L6.51477 4.87891H4.79828Z" fill="black"/>
</svg>
