<svg width="17" height="17" viewBox="0 0 17 17" fill="none" xmlns="http://www.w3.org/2000/svg">
<path fill-rule="evenodd" clip-rule="evenodd" d="M9.20841 3.88672C11.36 3.88672 13.1042 5.63094 13.1042 7.78255C13.1042 9.93416 11.36 11.6784 9.20841 11.6784C7.0568 11.6784 5.31258 9.93416 5.31258 7.78255C5.31258 5.63094 7.0568 3.88672 9.20841 3.88672ZM14.1667 7.78255C14.1667 5.04414 11.9468 2.82422 9.20841 2.82422C6.47 2.82422 4.25008 5.04414 4.25008 7.78255C4.25008 8.96039 4.66077 10.0423 5.34675 10.8929L2.98901 13.2507C2.78155 13.4581 2.78155 13.7945 2.98901 14.002C3.19648 14.2094 3.53285 14.2094 3.74031 14.002L6.09805 11.6442C6.94866 12.3302 8.03058 12.7409 9.20841 12.7409C11.9468 12.7409 14.1667 10.521 14.1667 7.78255Z" fill="black"/>
</svg>
