<svg width="24" height="25" viewBox="0 0 24 25" fill="none" xmlns="http://www.w3.org/2000/svg">
<path fill-rule="evenodd" clip-rule="evenodd" d="M4 5.24121C4 4.827 4.33579 4.49121 4.75 4.49121H7C7.34415 4.49121 7.64414 4.72543 7.72761 5.05931L8.33558 7.49121H19.25C19.4791 7.49121 19.6957 7.59594 19.8379 7.77556C19.9802 7.95517 20.0325 8.18996 19.9801 8.41299L18.3429 15.3711C18.0506 16.6133 16.9421 17.4912 15.666 17.4912H11.5395C10.2917 17.4912 9.20032 16.6511 8.88103 15.4449L7.02232 8.42313L6.41442 5.99121H4.75C4.33579 5.99121 4 5.65542 4 5.24121ZM8.72436 8.99121L10.3311 15.0611C10.4762 15.6094 10.9723 15.9912 11.5395 15.9912H15.666C16.246 15.9912 16.7499 15.5922 16.8827 15.0275L18.303 8.99121H8.72436Z" fill="black"/>
<path fill-rule="evenodd" clip-rule="evenodd" d="M9 19.4912C9 18.9389 9.44772 18.4912 10 18.4912C10.5523 18.4912 11 18.9389 11 19.4912C11 20.0435 10.5523 20.4912 10 20.4912C9.44772 20.4912 9 20.0435 9 19.4912Z" fill="black"/>
<path fill-rule="evenodd" clip-rule="evenodd" d="M16 19.4912C16 18.9389 16.4477 18.4912 17 18.4912C17.5523 18.4912 18 18.9389 18 19.4912C18 20.0435 17.5523 20.4912 17 20.4912C16.4477 20.4912 16 20.0435 16 19.4912Z" fill="black"/>
</svg>
