<svg width="24" height="25" viewBox="0 0 24 25" fill="none" xmlns="http://www.w3.org/2000/svg">
<path d="M12 4.48242C12.3267 4.48242 12.6157 4.69379 12.7147 5.00502L14.2985 9.98242H19.25C19.5704 9.98242 19.8555 10.186 19.9594 10.489C20.0634 10.7921 19.9634 11.1277 19.7105 11.3244L15.6052 14.5175L16.9736 19.5351C17.0596 19.8502 16.9316 20.1848 16.6573 20.3622C16.383 20.5396 16.0254 20.519 15.7733 20.3114L12 17.204L8.22683 20.3114C7.97465 20.519 7.61707 20.5396 7.34276 20.3622C7.06845 20.1848 6.94052 19.8502 7.02647 19.5351L8.39491 14.5175L4.28959 11.3244C4.03668 11.1277 3.93666 10.7921 4.04064 10.489C4.14462 10.186 4.42964 9.98242 4.75004 9.98242H9.70163L11.2854 5.00502C11.3844 4.69379 11.6734 4.48242 12 4.48242Z" fill="black"/>
</svg>
