<svg width="29" height="30" viewBox="0 0 29 30" fill="none" xmlns="http://www.w3.org/2000/svg">
<path fill-rule="evenodd" clip-rule="evenodd" d="M8.0777 9.44481C8.57633 9.40145 9.01569 9.77052 9.05905 10.2691L10.0754 21.9577C10.1433 22.7382 10.7967 23.3372 11.5802 23.3372H17.4197C18.2032 23.3372 18.8566 22.7382 18.9245 21.9577L19.9409 10.2691C19.9842 9.77052 20.4236 9.40145 20.9222 9.44481C21.4208 9.48817 21.7899 9.92754 21.7466 10.4262L20.7302 22.1147C20.5808 23.8318 19.1434 25.1497 17.4197 25.1497H11.5802C9.85656 25.1497 8.41908 23.8318 8.26976 22.1147L7.25337 10.4262C7.21001 9.92754 7.57907 9.48817 8.0777 9.44481Z" fill="black"/>
<path fill-rule="evenodd" clip-rule="evenodd" d="M14.1979 7.62891C13.3637 7.62891 12.6875 8.30514 12.6875 9.13932V10.0456C12.6875 10.5461 12.2817 10.9518 11.7812 10.9518C11.2807 10.9518 10.875 10.5461 10.875 10.0456V9.13932C10.875 7.30413 12.3627 5.81641 14.1979 5.81641H14.802C16.6372 5.81641 18.125 7.30413 18.125 9.13932V10.0456C18.125 10.5461 17.7192 10.9518 17.2187 10.9518C16.7182 10.9518 16.3125 10.5461 16.3125 10.0456V9.13932C16.3125 8.30514 15.6362 7.62891 14.802 7.62891H14.1979Z" fill="black"/>
<path fill-rule="evenodd" clip-rule="evenodd" d="M5.13538 10.3477C5.13538 9.84715 5.54112 9.44141 6.04163 9.44141H22.9583C23.4588 9.44141 23.8645 9.84715 23.8645 10.3477C23.8645 10.8482 23.4588 11.2539 22.9583 11.2539H6.04163C5.54112 11.2539 5.13538 10.8482 5.13538 10.3477Z" fill="black"/>
</svg>
