<svg width="24" height="25" viewBox="0 0 24 25" fill="none" xmlns="http://www.w3.org/2000/svg">
<path fill-rule="evenodd" clip-rule="evenodd" d="M11.9999 5.99121C10.6192 5.99121 9.49988 7.1105 9.49988 8.49121C9.49988 9.87192 10.6192 10.9912 11.9999 10.9912C13.3806 10.9912 14.4999 9.87192 14.4999 8.49121C14.4999 7.1105 13.3806 5.99121 11.9999 5.99121ZM7.99988 8.49121C7.99988 6.28207 9.79074 4.49121 11.9999 4.49121C14.209 4.49121 15.9999 6.28207 15.9999 8.49121C15.9999 10.7003 14.209 12.4912 11.9999 12.4912C9.79074 12.4912 7.99988 10.7003 7.99988 8.49121Z" fill="black"/>
<path fill-rule="evenodd" clip-rule="evenodd" d="M7.83257 16.2074C6.9148 16.7552 6.36069 17.4591 6.02231 18.0998C5.90279 18.3261 5.94052 18.5046 6.06175 18.6569C6.20289 18.8341 6.48391 18.9912 6.84738 18.9912H17.1524C17.5158 18.9912 17.7969 18.8341 17.938 18.6569C18.0592 18.5046 18.097 18.3261 17.9774 18.0998C17.6391 17.4591 17.085 16.7552 16.1672 16.2074C15.2488 15.6592 13.9226 15.2412 11.9999 15.2412C10.0772 15.2412 8.75093 15.6592 7.83257 16.2074ZM7.06375 14.9194C8.25267 14.2097 9.85459 13.7412 11.9999 13.7412C14.1452 13.7412 15.7471 14.2097 16.936 14.9194C18.1255 15.6294 18.8578 16.5547 19.3038 17.3993C19.7176 18.1828 19.5821 19.0001 19.1114 19.5913C18.6606 20.1574 17.9308 20.4912 17.1524 20.4912H6.84738C6.06893 20.4912 5.33918 20.1574 4.88835 19.5913C4.41761 19.0001 4.28216 18.1828 4.69592 17.3993C5.14197 16.5547 5.87425 15.6294 7.06375 14.9194Z" fill="black"/>
</svg>
